Coordinates
version=1
nRows=8
nColumns=40
inDegrees=yes

Units are S.I. units (second, meters, Newtons, ...)
Angles are in degrees.

endheader
time	pelvis_tilt	pelvis_list	pelvis_rotation	pelvis_tx	pelvis_ty	pelvis_tz	hip_flexion_r	hip_adduction_r	hip_rotation_r	knee_angle_r	knee_angle_r_beta	ankle_angle_r	subtalar_angle_r	mtp_angle_r	hip_flexion_l	hip_adduction_l	hip_rotation_l	knee_angle_l	knee_angle_l_beta	ankle_angle_l	subtalar_angle_l	mtp_angle_l	lumbar_extension	lumbar_bending	lumbar_rotation	arm_flex_r	arm_add_r	arm_rot_r	elbow_flex_r	pro_sup_r	wrist_flex_r	wrist_dev_r	arm_flex_l	arm_add_l	arm_rot_l	elbow_flex_l	pro_sup_l	wrist_flex_l	wrist_dev_l
      1.37000000	     -3.57745220	      0.11876740	      1.65883191	     -0.12594443	      0.89416758	      1.07240314	     20.49972393	     -5.12211628	    -10.79404382	    -59.16517941	     -1.03262718	      2.32179679	    -13.74077563	     16.09993437	     17.64852986	      0.07644470	     14.85724227	    -28.24715504	     -0.49300586	      9.76170210	      7.22574281	      2.40144623	     -2.00298729	     -3.48193736	     -3.36629796	     -1.34383685	     -8.20176205	    -15.32543503	     23.56725674	     89.95437384	      0.00000000	      0.00000000	      3.55162377	     10.69445151	     19.32020103	     29.53737209	     89.95437384	      0.00000000	      0.00000000
      1.38000000	     -3.66074539	      0.03834657	      1.86586544	     -0.11993645	      0.89455789	      1.07123732	     21.44318644	     -4.94081848	    -10.89659764	    -58.30287006	     -1.01757705	      2.84235187	    -13.62959037	     15.82466869	     17.19072773	      0.05059578	     14.76316294	    -28.01176523	     -0.48889753	      9.93577592	      6.97820181	      2.32783148	     -2.00707317	     -3.38764084	     -3.56179970	     -1.51010441	     -8.14205519	    -15.35504713	     23.67110555	     89.95437384	      0.00000000	      0.00000000	      4.11200337	     10.86975258	     19.26850820	     29.98228671	     89.95437384	      0.00000000	      0.00000000
      1.39000000	     -3.72296961	     -0.02790984	      2.08364404	     -0.11389953	      0.89486330	      1.07016136	     22.29562239	     -4.72870983	    -10.95449356	    -57.24114282	     -0.99904641	      3.34598215	    -13.54297858	     15.57758216	     16.70394694	      0.02525693	     14.70214890	    -27.75999533	     -0.48450332	     10.13116341	      6.74982785	      2.25196187	     -2.02990960	     -3.31964554	     -3.73734757	     -1.66778417	     -8.07990199	    -15.37661095	     23.79472551	     89.95437384	      0.00000000	      0.00000000	      4.67747943	     11.05284665	     19.22983492	     30.46011117	     89.95437384	      0.00000000	      0.00000000
      1.40000000	     -3.77258531	     -0.04767362	      2.28330780	     -0.10799462	      0.89513179	      1.06900306	     23.12584958	     -4.59633852	    -11.01210251	    -56.08112882	     -0.97880035	      3.69910913	    -13.40676666	     15.34442478	     16.20944872	     -0.04076144	     14.68678208	    -27.52861386	     -0.48046495	     10.29273339	      6.48844377	      2.17255553	     -2.09507434	     -3.27813034	     -3.89789659	     -1.80001927	     -8.05691639	    -15.35370170	     23.93065985	     89.95437384	      0.00000000	      0.00000000	      5.21399861	     11.22434581	     19.16390739	     30.97761013	     89.95437384	      0.00000000	      0.00000000
      1.41000000	     -3.82194229	     -0.05373792	      2.47100078	     -0.10195453	      0.89534741	      1.06799649	     23.89072073	     -4.47488834	    -11.05533925	    -54.77753019	     -0.95604826	      4.07899050	    -13.26763402	     15.12805053	     15.70664464	     -0.11040730	     14.68009438	    -27.28997090	     -0.47629985	     10.47167053	      6.22683375	      2.08992465	     -2.15192751	     -3.27678417	     -4.04032074	     -1.93930538	     -8.00553776	    -15.28675378	     24.02877852	     89.95437384	      0.00000000	      0.00000000	      5.72149919	     11.38902085	     19.10288255	     31.52907113	     89.95437384	      0.00000000	      0.00000000
      1.42000000	     -3.85930387	     -0.05597059	      2.65691546	     -0.09594147	      0.89554146	      1.06705527	     24.60243359	     -4.36187699	    -11.09304241	    -53.39760518	     -0.93196402	      4.41424271	    -13.07522488	     14.92371244	     15.18843166	     -0.17465953	     14.71302596	    -27.05302101	     -0.47216429	     10.62898943	      5.96699812	      2.00900742	     -2.23398113	     -3.27576809	     -4.17382810	     -2.04644760	     -7.96580971	    -15.17681172	     24.12998022	     89.95437384	      0.00000000	      0.00000000	      6.21608444	     11.53960329	     19.04088573	     32.10368245	     89.95437384	      0.00000000	      0.00000000
      1.43000000	     -3.89208605	     -0.06249125	      2.80275315	     -0.08998611	      0.89564700	      1.06626890	     25.27632239	     -4.22531139	    -11.05303411	    -51.92305500	     -0.90622827	      4.82611991	    -12.84986382	     14.71393453	     14.65240790	     -0.22666325	     14.66561190	    -26.81459620	     -0.46800299	     10.82422934	      5.69063384	      1.92266373	     -2.32780873	     -3.26728832	     -4.28572505	     -2.12590913	     -7.93589398	    -15.01353336	     24.22388836	     89.95437384	      0.00000000	      0.00000000	      6.67611174	     11.70292834	     18.99755192	     32.71202654	     89.95437384	      0.00000000	      0.00000000
      1.44000000	     -3.01802015	     -0.37886006	      2.94112588	     -0.08332007	      0.89726738	      1.06577939	     24.59822341	     -3.61205273	    -11.14606051	    -49.91959619	     -0.87126131	      5.34836814	    -12.76366951	     14.78137556	     12.90211228	      0.15514502	     14.69492789	    -26.20149483	     -0.45730235	     10.98255161	      4.88722626	      1.71222231	     -3.44104429	     -2.87419165	     -4.48206535	     -1.96010845	     -7.95778606	    -14.57204702	     24.20177619	     89.95437384	      0.00000000	      0.00000000	      7.05032512	     11.85412707	     19.00508817	     33.57325675	     89.95437384	      0.00000000	      0.00000000
